<svg width="20" height="20" viewBox="0 0 20 20" fill="none" xmlns="http://www.w3.org/2000/svg">
<path d="M9.99992 17.4793C9.80436 17.4793 9.63263 17.4486 9.48471 17.3872C9.33679 17.3257 9.19443 17.2239 9.05763 17.0818L2.91825 10.9425C2.77617 10.8056 2.67436 10.6633 2.61284 10.5154C2.55145 10.3675 2.52075 10.1957 2.52075 10.0002C2.52075 9.80461 2.55145 9.63419 2.61284 9.48891C2.67436 9.34364 2.77409 9.20204 2.912 9.06412L9.05763 2.9185C9.19443 2.78169 9.33679 2.68127 9.48471 2.61725C9.63263 2.55308 9.80436 2.521 9.99992 2.521C10.1955 2.521 10.3659 2.55308 10.5112 2.61725C10.6564 2.68127 10.8001 2.78169 10.9422 2.9185L17.0816 9.05787C17.2184 9.19995 17.3188 9.34364 17.3828 9.48891C17.447 9.63419 17.4791 9.80461 17.4791 10.0002C17.4791 10.1957 17.447 10.3675 17.3828 10.5154C17.3188 10.6633 17.2184 10.8056 17.0816 10.9425L10.936 17.0881C10.798 17.226 10.6564 17.3257 10.5112 17.3872C10.3659 17.4486 10.1955 17.4793 9.99992 17.4793ZM10.1843 16.3158L16.3155 10.1845C16.3583 10.1418 16.3797 10.0803 16.3797 10.0002C16.3797 9.92002 16.3583 9.85857 16.3155 9.81579L10.1843 3.68454C10.1415 3.64176 10.0801 3.62037 9.99992 3.62037C9.91978 3.62037 9.85832 3.64176 9.81554 3.68454L3.68429 9.81579C3.64152 9.85857 3.62013 9.92002 3.62013 10.0002C3.62013 10.0803 3.64152 10.1418 3.68429 10.1845L9.81554 16.3158C9.85832 16.3586 9.91978 16.38 9.99992 16.38C10.0801 16.38 10.1415 16.3586 10.1843 16.3158ZM9.45825 10.5722H10.5416V6.39287H9.45825V10.5722ZM9.99554 12.7518C10.1587 12.7518 10.2985 12.695 10.4149 12.5814C10.5314 12.4679 10.5897 12.3296 10.5897 12.1664C10.5897 12.0032 10.5329 11.8634 10.4193 11.747C10.3058 11.6305 10.1675 11.5722 10.0043 11.5722C9.8411 11.5722 9.70131 11.6291 9.58492 11.7427C9.46839 11.8561 9.41013 11.9945 9.41013 12.1577C9.41013 12.3209 9.46693 12.4606 9.58054 12.577C9.69402 12.6936 9.83235 12.7518 9.99554 12.7518Z" fill="white"/>
</svg>
