<svg width="20" height="20" viewBox="0 0 20 20" fill="none" xmlns="http://www.w3.org/2000/svg">
<path d="M10.9282 11.4999C14.0062 11.4999 16.4999 13.9936 16.4999 17.0717C16.4999 17.5842 16.0843 17.9998 15.5718 17.9998H4.42822C3.91572 17.9998 3.50006 17.5842 3.50006 17.0717C3.50013 13.9936 5.99377 11.4999 9.07184 11.4999H10.9282ZM9.61872 12.1739C9.37064 12.1739 9.23704 12.4653 9.39906 12.6531L9.54003 12.8164C9.59668 12.882 9.621 12.9696 9.60626 13.055L9.01296 16.4922C8.99591 16.591 9.03114 16.6917 9.10609 16.7583L9.95245 17.5101C10.0622 17.6077 10.2276 17.6077 10.3374 17.5101L11.1838 16.7583C11.2587 16.6917 11.2939 16.591 11.2769 16.4922L10.6836 13.055C10.6689 12.9696 10.6932 12.882 10.7498 12.8164L10.8908 12.6531C11.0528 12.4653 10.9192 12.1739 10.6711 12.1739H9.61872ZM10 2.25C12.0719 2.25001 13.75 3.92813 13.75 6C13.75 8.07184 12.0718 9.74999 10 9.75C7.92815 9.75 6.25004 8.07184 6.25 6C6.25 3.92812 7.92813 2.25 10 2.25Z" fill="#666666"/>
</svg>
