<svg width="20" height="20" viewBox="0 0 20 20" fill="none" xmlns="http://www.w3.org/2000/svg">
<path d="M14.2885 11.5385C13.8612 11.5385 13.4979 11.3889 13.1988 11.0897C12.8996 10.7905 12.75 10.4273 12.75 9.99991C12.75 9.57255 12.8996 9.20928 13.1988 8.91012C13.4979 8.61095 13.8612 8.46137 14.2885 8.46137C14.7159 8.46137 15.0792 8.61095 15.3783 8.91012C15.6775 9.20928 15.8271 9.57255 15.8271 9.99991C15.8271 10.4273 15.6775 10.7905 15.3783 11.0897C15.0792 11.3889 14.7159 11.5385 14.2885 11.5385ZM14.2885 13.9422C15.3997 13.9422 16.3345 13.563 17.0931 12.8045C17.8516 12.0459 18.2308 11.111 18.2308 9.99991C18.2308 8.8888 17.8516 7.95394 17.0931 7.19533C16.3345 6.43685 15.3997 6.05762 14.2885 6.05762C13.3869 6.05762 12.5768 6.32713 11.8583 6.86616C11.1399 7.40505 10.6765 8.08852 10.4681 8.91658H3.15708L2.05771 10.0159L3.95833 12.1905L5.1475 10.8749L6.50333 11.9101L7.63479 11.0832H10.4681C10.6519 11.8685 11.0979 12.5413 11.8063 13.1016C12.5146 13.662 13.342 13.9422 14.2885 13.9422Z" fill="#666666"/>
</svg>
