<svg width="10" height="12" viewBox="0 0 10 12" fill="none" xmlns="http://www.w3.org/2000/svg">
<path d="M3.07696 9.8983C2.78273 9.8983 2.53404 9.79294 2.33088 9.5822C2.12772 9.37147 2.02614 9.1135 2.02614 8.8083V1.09C2.02614 0.784802 2.12772 0.526837 2.33088 0.316102C2.53404 0.105368 2.78273 0 3.07696 0H8.94918C9.24341 0 9.4921 0.105368 9.69526 0.316102C9.89842 0.526837 10 0.784802 10 1.09V8.8083C10 9.1135 9.89842 9.37147 9.69526 9.5822C9.4921 9.79294 9.24341 9.8983 8.94918 9.8983H3.07696ZM3.07696 9.01695H8.94918C8.99951 9.01695 9.04559 8.9952 9.08742 8.9517C9.12936 8.90831 9.15033 8.86051 9.15033 8.8083V1.09C9.15033 1.0378 9.12936 0.99 9.08742 0.94661C9.04559 0.903107 8.99951 0.881356 8.94918 0.881356H3.07696C3.02663 0.881356 2.98056 0.903107 2.93873 0.94661C2.89679 0.99 2.87582 1.0378 2.87582 1.09V8.8083C2.87582 8.86051 2.89679 8.90831 2.93873 8.9517C2.98056 8.9952 3.02663 9.01695 3.07696 9.01695ZM1.05082 12C0.75659 12 0.507897 11.8946 0.304738 11.6839C0.101579 11.4732 0 11.2152 0 10.91V2.73517C0 2.50054 0.190206 2.31034 0.424837 2.31034C0.659467 2.31034 0.849673 2.50054 0.849673 2.73518V10.91C0.849673 10.9622 0.870643 11.01 0.912582 11.0534C0.954412 11.0969 1.00049 11.1186 1.05082 11.1186H7.33203C7.57541 11.1186 7.77271 11.3159 7.77271 11.5593C7.77271 11.8027 7.57541 12 7.33203 12H1.05082Z" fill="white"/>
</svg>
