<svg width="20" height="20" viewBox="0 0 20 20" fill="none" xmlns="http://www.w3.org/2000/svg">
<path d="M10.0154 8.22676C11.3721 8.22676 12.4742 7.12467 12.4742 5.76792C12.4742 4.41117 11.3721 3.30908 10.0154 3.30908C8.65861 3.30908 7.55653 4.41117 7.55653 5.76792C7.55653 7.12467 8.65861 8.22676 10.0154 8.22676ZM10.0154 8.66583C7.68825 8.66583 5.80021 10.5539 5.80021 12.881V14.286C5.80021 15.0632 6.4281 15.6911 7.20526 15.6911H12.8255C13.6026 15.6911 14.2305 15.0632 14.2305 14.286V12.881C14.2305 10.5539 12.3425 8.66583 10.0154 8.66583ZM5.6202 6.88757C5.6202 5.72401 4.67618 4.77999 3.51262 4.77999C2.34907 4.77999 1.40505 5.72401 1.40505 6.88757C1.40505 8.05112 2.34907 8.99514 3.51262 8.99514C4.67618 8.99514 5.6202 8.05112 5.6202 6.88757ZM18.5906 6.88757C18.5906 5.72401 17.6465 4.77999 16.483 4.77999C15.3194 4.77999 14.3754 5.72401 14.3754 6.88757C14.3754 8.05112 15.3194 8.99514 16.483 8.99514C17.6465 8.99514 18.5906 8.05112 18.5906 6.88757ZM3.51262 9.36836C1.5719 9.36836 0 10.9403 0 12.881V14.3343C0 15.0808 0.605928 15.6911 1.35675 15.6911H5.21186C5.02305 15.2608 4.91767 14.7866 4.91767 14.286V12.1785C4.91767 11.3706 5.07135 10.5978 5.34797 9.88647C4.81229 9.55716 4.18441 9.36836 3.51262 9.36836ZM14.7881 15.6911H18.6433C19.3897 15.6911 20 15.0852 20 14.3343V12.881C20 10.9403 18.4281 9.36836 16.4874 9.36836C15.8156 9.36836 15.1877 9.55716 14.652 9.88647C14.9287 10.5978 15.0823 11.3706 15.0823 12.1785V14.286C15.0823 14.7866 14.9769 15.2608 14.7881 15.6911Z" fill="#666666"/>
</svg>
