<svg width="20" height="20" viewBox="0 0 20 20" fill="none" xmlns="http://www.w3.org/2000/svg">
<path d="M10.0073 9.77554C10.3337 9.77554 10.6106 9.65936 10.8381 9.427C11.0658 9.1945 11.1796 8.91513 11.1796 8.58888C11.1796 8.26249 11.0633 7.98547 10.8308 7.75784C10.5985 7.53034 10.3191 7.41659 9.9927 7.41659C9.66631 7.41659 9.38936 7.53277 9.16186 7.76513C8.93422 7.99763 8.8204 8.277 8.8204 8.60325C8.8204 8.92964 8.93665 9.20666 9.16915 9.43429C9.40152 9.66179 9.68089 9.77554 10.0073 9.77554ZM9.99999 17.1826C8.09749 15.5326 6.66409 13.9935 5.69978 12.5653C4.73534 11.1371 4.25311 9.82957 4.25311 8.64263C4.25311 7.10193 4.77506 5.74853 5.81895 4.58242C6.8627 3.41631 8.2529 2.83325 9.98957 2.83325C11.7262 2.83325 13.1199 3.41631 14.1706 4.58242C15.2214 5.74853 15.7469 7.10193 15.7469 8.64263C15.7469 9.82957 15.2682 11.134 14.3108 12.556C13.3536 13.978 11.9167 15.5203 9.99999 17.1826Z" fill="#666666"/>
</svg>
