<svg width="20" height="20" viewBox="0 0 20 20" fill="none" xmlns="http://www.w3.org/2000/svg">
<path d="M6.3204 14.0131H6.98706V3.50016H6.3204V14.0131ZM5.44227 17.1668C4.99533 17.1668 4.61547 17.0104 4.30269 16.6975C3.98977 16.3847 3.83331 16.0048 3.83331 15.5579V4.44245C3.83331 3.99551 3.98977 3.61565 4.30269 3.30287C4.61547 2.98996 4.99533 2.8335 5.44227 2.8335H13.6796V14.6797H5.44227C5.18699 14.6797 4.96616 14.7663 4.77977 14.9393C4.59324 15.1124 4.49998 15.3268 4.49998 15.5827C4.49998 15.8385 4.59324 16.0554 4.77977 16.2333C4.96616 16.4112 5.18699 16.5002 5.44227 16.5002H15.5V4.3335H16.1666V17.1668H5.44227Z" fill="#666666"/>
</svg>
