<svg width="20" height="20" viewBox="0 0 20 20" fill="none" xmlns="http://www.w3.org/2000/svg">
<path d="M10.0044 12.1281C9.8573 12.1281 9.72682 12.0727 9.61293 11.9619C9.49918 11.8511 9.4423 11.7221 9.4423 11.575C9.4423 11.4278 9.49772 11.2973 9.60855 11.1836C9.71939 11.0698 9.84841 11.0129 9.99564 11.0129C10.1427 11.0129 10.2732 11.0683 10.3871 11.1792C10.5008 11.29 10.5577 11.419 10.5577 11.5661C10.5577 11.7133 10.5023 11.8438 10.3915 11.9575C10.2806 12.0713 10.1516 12.1281 10.0044 12.1281ZM6.75438 12.1281C6.6073 12.1281 6.47682 12.0727 6.36293 11.9619C6.24918 11.8511 6.1923 11.7221 6.1923 11.575C6.1923 11.4278 6.24772 11.2973 6.35855 11.1836C6.46939 11.0698 6.59841 11.0129 6.74564 11.0129C6.89272 11.0129 7.0232 11.0683 7.13709 11.1792C7.25084 11.29 7.30772 11.419 7.30772 11.5661C7.30772 11.7133 7.2523 11.8438 7.14147 11.9575C7.03064 12.0713 6.90161 12.1281 6.75438 12.1281ZM13.2544 12.1281C13.1073 12.1281 12.9768 12.0727 12.8629 11.9619C12.7492 11.8511 12.6923 11.7221 12.6923 11.575C12.6923 11.4278 12.7477 11.2973 12.8586 11.1836C12.9694 11.0698 13.0984 11.0129 13.2456 11.0129C13.3927 11.0129 13.5232 11.0683 13.6371 11.1792C13.7508 11.29 13.8077 11.419 13.8077 11.5661C13.8077 11.7133 13.7523 11.8438 13.6415 11.9575C13.5306 12.0713 13.4016 12.1281 13.2544 12.1281ZM10.0044 15C9.8573 15 9.72682 14.9446 9.61293 14.8338C9.49918 14.7229 9.4423 14.5939 9.4423 14.4467C9.4423 14.2996 9.49772 14.1691 9.60855 14.0552C9.71939 13.9415 9.84841 13.8846 9.99564 13.8846C10.1427 13.8846 10.2732 13.94 10.3871 14.0508C10.5008 14.1618 10.5577 14.2908 10.5577 14.4379C10.5577 14.5852 10.5023 14.7156 10.3915 14.8294C10.2806 14.9431 10.1516 15 10.0044 15ZM6.75438 15C6.6073 15 6.47682 14.9446 6.36293 14.8338C6.24918 14.7229 6.1923 14.5939 6.1923 14.4467C6.1923 14.2996 6.24772 14.1691 6.35855 14.0552C6.46939 13.9415 6.59841 13.8846 6.74564 13.8846C6.89272 13.8846 7.0232 13.94 7.13709 14.0508C7.25084 14.1618 7.30772 14.2908 7.30772 14.4379C7.30772 14.5852 7.2523 14.7156 7.14147 14.8294C7.03064 14.9431 6.90161 15 6.75438 15ZM13.2544 15C13.1073 15 12.9768 14.9446 12.8629 14.8338C12.7492 14.7229 12.6923 14.5939 12.6923 14.4467C12.6923 14.2996 12.7477 14.1691 12.8586 14.0552C12.9694 13.9415 13.0984 13.8846 13.2456 13.8846C13.3927 13.8846 13.5232 13.94 13.6371 14.0508C13.7508 14.1618 13.8077 14.2908 13.8077 14.4379C13.8077 14.5852 13.7523 14.7156 13.6415 14.8294C13.5306 14.9431 13.4016 15 13.2544 15ZM5.01293 17.1667C4.67515 17.1667 4.39411 17.0521 4.1698 16.8229C3.9455 16.5938 3.83334 16.3152 3.83334 15.9871V6.01293C3.83334 5.68487 3.9455 5.40626 4.1698 5.1771C4.39411 4.94793 4.67515 4.83335 5.01293 4.83335H7.15376L7.16592 3.86082C7.16842 3.66082 7.33126 3.5 7.53128 3.5C7.73486 3.5 7.89918 3.66639 7.89664 3.86995L7.88459 4.83335H12.1796L12.1921 3.82914C12.1944 3.6467 12.343 3.5 12.5254 3.5C12.7111 3.5 12.861 3.65178 12.8587 3.83747L12.8463 4.83335H14.9871C15.3249 4.83335 15.6059 4.94793 15.8302 5.1771C16.0545 5.40626 16.1667 5.68487 16.1667 6.01293V15.9871C16.1667 16.3152 16.0545 16.5938 15.8302 16.8229C15.6059 17.0521 15.3249 17.1667 14.9871 17.1667H5.01293ZM5.01293 16.5H14.9871C15.1154 16.5 15.233 16.4466 15.3398 16.3398C15.4466 16.233 15.5 16.1154 15.5 15.9871V9.51293H4.50001V15.9871C4.50001 16.1154 4.55341 16.233 4.66022 16.3398C4.76702 16.4466 4.88459 16.5 5.01293 16.5Z" fill="#666666"/>
</svg>
