<svg width="20" height="20" viewBox="0 0 20 20" fill="none" xmlns="http://www.w3.org/2000/svg">
<path d="M14.4444 9.11111V2H5.55556V5.55556H2V18H9.11111V14.4444H10.8889V18H18V9.11111H14.4444ZM5.55556 16.2222H3.77778V14.4444H5.55556V16.2222ZM5.55556 12.6667H3.77778V10.8889H5.55556V12.6667ZM5.55556 9.11111H3.77778V7.33333H5.55556V9.11111ZM9.11111 12.6667H7.33333V10.8889H9.11111V12.6667ZM9.11111 9.11111H7.33333V7.33333H9.11111V9.11111ZM9.11111 5.55556H7.33333V3.77778H9.11111V5.55556ZM12.6667 12.6667H10.8889V10.8889H12.6667V12.6667ZM12.6667 9.11111H10.8889V7.33333H12.6667V9.11111ZM12.6667 5.55556H10.8889V3.77778H12.6667V5.55556ZM16.2222 16.2222H14.4444V14.4444H16.2222V16.2222ZM16.2222 12.6667H14.4444V10.8889H16.2222V12.6667Z" fill="#666666"/>
</svg>
