<svg width="18" height="18" viewBox="0 0 18 18" fill="none" xmlns="http://www.w3.org/2000/svg">
<rect width="18" height="18" rx="4" fill="#6A5CFF"/>
<path d="M9 14C7.60417 14 6.42188 13.5156 5.45313 12.5469C4.48438 11.5781 4 10.3958 4 9C4 7.60417 4.48438 6.42188 5.45313 5.45313C6.42188 4.48438 7.60417 4 9 4C9.71875 4 10.4063 4.14844 11.0625 4.44531C11.7188 4.74219 12.2812 5.16667 12.75 5.71875V4.625C12.75 4.27982 13.0298 4 13.375 4C13.7202 4 14 4.27982 14 4.625V8.375H10.25C9.90482 8.375 9.625 8.09518 9.625 7.75C9.625 7.40482 9.90482 7.125 10.25 7.125H12.25C11.9167 6.54167 11.4609 6.08333 10.8828 5.75C10.3047 5.41667 9.67708 5.25 9 5.25C7.95833 5.25 7.07292 5.61458 6.34375 6.34375C5.61458 7.07292 5.25 7.95833 5.25 9C5.25 10.0417 5.61458 10.9271 6.34375 11.6562C7.07292 12.3854 7.95833 12.75 9 12.75C9.80208 12.75 10.526 12.5208 11.1719 12.0625C11.6896 11.6951 12.0835 11.2339 12.3536 10.679C12.4753 10.4289 12.7177 10.25 12.9958 10.25C13.4242 10.25 13.738 10.658 13.5641 11.0496C13.2321 11.7974 12.7315 12.4319 12.0625 12.9531C11.1667 13.651 10.1458 14 9 14Z" fill="white"/>
</svg>
