<svg width="20" height="20" viewBox="0 0 20 20" fill="none" xmlns="http://www.w3.org/2000/svg">
<path d="M8.07696 14.3983C7.78273 14.3983 7.53404 14.2929 7.33088 14.0822C7.12772 13.8715 7.02614 13.6135 7.02614 13.3083V5.59C7.02614 5.2848 7.12772 5.02684 7.33088 4.8161C7.53404 4.60537 7.78273 4.5 8.07696 4.5H13.9492C14.2434 4.5 14.4921 4.60537 14.6953 4.8161C14.8984 5.02684 15 5.2848 15 5.59V13.3083C15 13.6135 14.8984 13.8715 14.6953 14.0822C14.4921 14.2929 14.2434 14.3983 13.9492 14.3983H8.07696ZM8.07696 13.5169H13.9492C13.9995 13.5169 14.0456 13.4952 14.0874 13.4517C14.1294 13.4083 14.1503 13.3605 14.1503 13.3083V5.59C14.1503 5.5378 14.1294 5.49 14.0874 5.44661C14.0456 5.40311 13.9995 5.38136 13.9492 5.38136H8.07696C8.02663 5.38136 7.98056 5.40311 7.93873 5.44661C7.89679 5.49 7.87582 5.5378 7.87582 5.59V13.3083C7.87582 13.3605 7.89679 13.4083 7.93873 13.4517C7.98056 13.4952 8.02663 13.5169 8.07696 13.5169ZM6.05082 16.5C5.75659 16.5 5.5079 16.3946 5.30474 16.1839C5.10158 15.9732 5 15.7152 5 15.41V7.23517C5 7.00054 5.19021 6.81034 5.42484 6.81034C5.65947 6.81034 5.84967 7.00054 5.84967 7.23518V15.41C5.84967 15.4622 5.87064 15.51 5.91258 15.5534C5.95441 15.5969 6.00049 15.6186 6.05082 15.6186H12.332C12.5754 15.6186 12.7727 15.8159 12.7727 16.0593C12.7727 16.3027 12.5754 16.5 12.332 16.5H6.05082Z" fill="white"/>
</svg>
