<svg width="16" height="16" viewBox="0 0 16 16" fill="none" xmlns="http://www.w3.org/2000/svg">
<path d="M8.00002 10.7448L5.13893 7.88359C4.92066 7.6653 4.91942 7.31179 5.13616 7.09198C5.35507 6.86997 5.7129 6.86871 5.93337 7.08917L7.44452 8.60033V3.22249C7.44452 2.9157 7.69323 2.66699 8.00002 2.66699C8.30682 2.66699 8.55552 2.9157 8.55552 3.22249V8.60033L10.0667 7.08917C10.2871 6.86871 10.645 6.86997 10.8639 7.09198C11.0806 7.31179 11.0794 7.6653 10.8611 7.88359L8.00002 10.7448ZM3.77785 13.3337C3.47785 13.3337 3.21763 13.2235 2.99719 13.0032C2.77685 12.7827 2.66669 12.5225 2.66669 12.2225V10.5226C2.66669 10.2157 2.91543 9.96699 3.22227 9.96699C3.52911 9.96699 3.77785 10.2157 3.77785 10.5226V11.8466C3.77785 12.0542 3.94616 12.2225 4.15377 12.2225H11.8463C12.0539 12.2225 12.2222 12.0542 12.2222 11.8466V10.5226C12.2222 10.2157 12.4709 9.96699 12.7778 9.96699C13.0846 9.96699 13.3334 10.2157 13.3334 10.5226V12.2225C13.3334 12.5225 13.2232 12.7827 13.0029 13.0032C12.7824 13.2235 12.5222 13.3337 12.2222 13.3337H3.77785Z" fill="white"/>
</svg>
