<svg width="20" height="20" viewBox="0 0 20 20" fill="none" xmlns="http://www.w3.org/2000/svg">
<path d="M9.99998 17.4788C9.80442 17.4788 9.63269 17.4481 9.48477 17.3868C9.33685 17.3252 9.19449 17.2234 9.05769 17.0813L2.91831 10.942C2.77623 10.8052 2.67442 10.6628 2.6129 10.5149C2.55151 10.367 2.52081 10.1952 2.52081 9.99967C2.52081 9.80412 2.55151 9.6337 2.6129 9.48842C2.67442 9.34315 2.77415 9.20155 2.91206 9.06363L9.05769 2.91801C9.19449 2.7812 9.33685 2.68079 9.48477 2.61676C9.63269 2.55259 9.80442 2.52051 9.99998 2.52051C10.1955 2.52051 10.366 2.55259 10.5112 2.61676C10.6565 2.68079 10.8002 2.7812 10.9423 2.91801L17.0816 9.05738C17.2185 9.19947 17.3189 9.34315 17.3829 9.48842C17.4471 9.6337 17.4791 9.80412 17.4791 9.99967C17.4791 10.1952 17.4471 10.367 17.3829 10.5149C17.3189 10.6628 17.2185 10.8052 17.0816 10.942L10.936 17.0876C10.7981 17.2255 10.6565 17.3252 10.5112 17.3868C10.366 17.4481 10.1955 17.4788 9.99998 17.4788ZM10.1844 16.3153L16.3156 10.184C16.3584 10.1413 16.3798 10.0798 16.3798 9.99967C16.3798 9.91954 16.3584 9.85808 16.3156 9.8153L10.1844 3.68405C10.1416 3.64127 10.0801 3.61988 9.99998 3.61988C9.91984 3.61988 9.85838 3.64127 9.8156 3.68405L3.68435 9.8153C3.64158 9.85808 3.62019 9.91954 3.62019 9.99967C3.62019 10.0798 3.64158 10.1413 3.68435 10.184L9.8156 16.3153C9.85838 16.3581 9.91984 16.3795 9.99998 16.3795C10.0801 16.3795 10.1416 16.3581 10.1844 16.3153ZM9.45831 10.5718H10.5416V6.39238H9.45831V10.5718ZM9.99561 12.7513C10.1588 12.7513 10.2986 12.6945 10.415 12.5809C10.5315 12.4675 10.5898 12.3291 10.5898 12.1659C10.5898 12.0027 10.533 11.8629 10.4194 11.7465C10.3059 11.63 10.1675 11.5718 10.0044 11.5718C9.84116 11.5718 9.70137 11.6286 9.58498 11.7422C9.46845 11.8556 9.41019 11.994 9.41019 12.1572C9.41019 12.3204 9.46699 12.4602 9.5806 12.5765C9.69408 12.6931 9.83241 12.7513 9.99561 12.7513Z" fill="#E05252"/>
</svg>
