<svg width="20" height="20" viewBox="0 0 20 20" fill="none" xmlns="http://www.w3.org/2000/svg">
<path d="M16.0156 2.32188L9.09688 6.9375C8.1875 7.54375 7.60938 8.52812 7.51562 9.60312C9.4625 10.0031 10.9969 11.5375 11.4 13.4875C12.4781 13.3938 13.4594 12.8156 14.0656 11.9062L18.6781 4.98438C18.8875 4.66875 19 4.3 19 3.91875C19 2.85938 18.1406 2 17.0812 2C16.7031 2 16.3313 2.1125 16.0156 2.32188ZM10 14.5C10 12.5656 8.43438 11 6.5 11C4.56562 11 3 12.5656 3 14.5C3 14.6219 3.00625 14.7438 3.01875 14.8625C3.075 15.4094 2.7 16 2.15 16H2C1.44687 16 1 16.4469 1 17C1 17.5531 1.44687 18 2 18H6.5C8.43438 18 10 16.4344 10 14.5Z" fill="#666666"/>
</svg>
