<svg width="20" height="20" viewBox="0 0 20 20" fill="none" xmlns="http://www.w3.org/2000/svg">
<path d="M10 18C12.2333 18 14.125 17.225 15.675 15.675C17.225 14.125 18 12.2333 18 10C18 7.76667 17.225 5.875 15.675 4.325C14.125 2.775 12.2333 2 10 2C8.85 2 7.75 2.2375 6.7 2.7125C5.65 3.1875 4.75 3.86667 4 4.75V3C4 2.44772 3.55228 2 3 2C2.44771 2 2 2.44772 2 3V9H8C8.55228 9 9 8.55229 9 8C9 7.44772 8.55228 7 8 7H4.8C5.33333 6.06667 6.0625 5.33333 6.9875 4.8C7.9125 4.26667 8.91667 4 10 4C11.6667 4 13.0833 4.58333 14.25 5.75C15.4167 6.91667 16 8.33333 16 10C16 11.6667 15.4167 13.0833 14.25 14.25C13.0833 15.4167 11.6667 16 10 16C8.71667 16 7.55833 15.6333 6.525 14.9C5.69658 14.3121 5.06633 13.5742 4.63425 12.6864C4.43954 12.2863 4.05169 12 3.60673 12C2.92122 12 2.4192 12.6528 2.6974 13.2794C3.22869 14.4758 4.02956 15.4911 5.1 16.325C6.53333 17.4417 8.16667 18 10 18Z" fill="#666666"/>
</svg>
