<svg width="24" height="24" viewBox="0 0 24 24" fill="none" xmlns="http://www.w3.org/2000/svg">
<path d="M18.5333 7C18.7911 7 19 7.22386 19 7.5C19 7.77614 18.7911 8 18.5333 8H5.46667C5.20893 8 5 7.77614 5 7.5C5 7.22386 5.20893 7 5.46667 7H18.5333Z" fill="#999999"/>
<path d="M14.8 12C15.0577 12 15.2667 12.2239 15.2667 12.5C15.2667 12.7761 15.0577 13 14.8 13H5.46667C5.20893 13 5 12.7761 5 12.5C5 12.2239 5.20893 12 5.46667 12H14.8Z" fill="#999999"/>
<path d="M18.5333 17C18.7911 17 19 17.2239 19 17.5C19 17.7761 18.7911 18 18.5333 18H5.46667C5.20893 18 5 17.7761 5 17.5C5 17.2239 5.20893 17 5.46667 17H18.5333Z" fill="#999999"/>
<path d="M18.5333 7C18.7911 7 19 7.22386 19 7.5C19 7.77614 18.7911 8 18.5333 8H5.46667C5.20893 8 5 7.77614 5 7.5C5 7.22386 5.20893 7 5.46667 7H18.5333Z" stroke="#999999" stroke-linecap="round"/>
<path d="M14.8 12C15.0577 12 15.2667 12.2239 15.2667 12.5C15.2667 12.7761 15.0577 13 14.8 13H5.46667C5.20893 13 5 12.7761 5 12.5C5 12.2239 5.20893 12 5.46667 12H14.8Z" stroke="#999999" stroke-linecap="round"/>
<path d="M18.5333 17C18.7911 17 19 17.2239 19 17.5C19 17.7761 18.7911 18 18.5333 18H5.46667C5.20893 18 5 17.7761 5 17.5C5 17.2239 5.20893 17 5.46667 17H18.5333Z" stroke="#999999" stroke-linecap="round"/>
</svg>
