<svg width="73" height="32" viewBox="0 0 73 32" fill="none" xmlns="http://www.w3.org/2000/svg">
<path d="M2.13749 26.6672C2.12396 26.4306 2.39064 26.2767 2.58878 26.4067L3.68526 27.1262C3.76394 27.1779 3.86392 27.1874 3.95262 27.1518L5.18869 26.655C5.41205 26.5653 5.638 26.7663 5.57103 26.9952L5.20046 28.262C5.17387 28.3529 5.19394 28.4502 5.25414 28.5221L6.09298 29.5245C6.24456 29.7056 6.11752 29.9838 5.878 29.9953L4.55249 30.0586C4.45737 30.0632 4.3698 30.1137 4.3183 30.1938L3.60066 31.3101C3.47099 31.5118 3.16653 31.4827 3.08546 31.2609L2.63682 30.0332C2.60462 29.9451 2.53043 29.8791 2.43841 29.8567L1.15604 29.5442C0.924313 29.4877 0.86319 29.1916 1.05261 29.043L2.10084 28.2209C2.17606 28.1619 2.21778 28.0706 2.2124 27.9766L2.13749 26.6672Z" fill="#6A5CFF"/>
<path d="M64.2952 15.1172C64.741 15.1172 65.1569 15.1979 65.5413 15.3594C65.9331 15.5132 66.2099 15.7827 66.3713 16.167C66.4712 16.4359 66.5359 16.7128 66.5667 16.9971C66.5974 17.3665 66.6206 19.7649 66.636 24.1924C66.636 26.2065 66.644 28.0981 66.6594 29.8662C66.6594 30.2121 66.5827 30.5504 66.429 30.8809C66.2752 31.2037 66.0289 31.4531 65.6907 31.6299C65.2141 31.8682 64.7184 31.9873 64.2034 31.9873C63.9112 31.9873 63.6226 31.9419 63.3381 31.8496C62.7924 31.6113 62.4501 31.1651 62.3118 30.5117C62.1888 29.8968 62.1272 29.2627 62.1272 28.6094V28.4941C62.1195 28.1943 62.1084 27.9208 62.093 27.6748C61.6318 27.6594 61.1705 27.6523 60.7092 27.6523C60.2557 27.6523 59.7983 27.6483 59.3372 27.6406C59.3372 28.0095 59.3442 28.3054 59.3596 28.5283C59.375 28.7512 59.3831 28.9703 59.3831 29.1855C59.3831 29.7927 59.2678 30.2885 59.0374 30.6729C58.8221 31.0111 58.5182 31.2342 58.1262 31.3418C57.7419 31.4417 57.3653 31.4922 56.9963 31.4922C56.5197 31.4922 56.1079 31.3691 55.762 31.123C55.4161 30.8771 55.193 30.558 55.093 30.166C54.7394 28.5593 54.5628 26.0338 54.5627 22.5898C54.5627 21.0618 54.5878 19.7264 54.636 18.584C55.5861 18.5201 56.5531 18.3269 57.5344 18.0068L57.5354 18.0078C58.1281 17.8157 58.6827 17.5756 59.1995 17.291C59.2137 17.4189 59.2219 17.5481 59.2219 17.6777C59.1912 19.0767 59.175 20.3296 59.175 21.4365C59.175 22.1745 59.1871 22.9124 59.2102 23.6504C59.6637 23.6197 60.1171 23.6045 60.5706 23.6045C61.0241 23.6045 61.4783 23.6317 61.9319 23.6855L61.9202 22.6475C61.9202 21.5789 61.9353 20.4716 61.9661 19.3262L62.0002 17.3887C62.0003 17.089 62.0356 16.789 62.1047 16.4893C62.1816 16.182 62.3392 15.9172 62.5774 15.6943C63.0386 15.31 63.6111 15.1172 64.2952 15.1172ZM9.99438 16.2588C10.3479 16.2588 10.6822 16.3285 10.9973 16.4668C11.3124 16.6052 11.5659 16.8283 11.7581 17.1357C11.9578 17.4355 12.0579 17.8354 12.0579 18.335L12.0461 18.7148C11.877 20.4445 11.7932 22.0515 11.7932 23.5352C11.7932 25.7723 12.0314 26.8906 12.5081 26.8906C13.1844 26.8212 13.5227 25.714 13.5227 23.5693C13.5227 22.9161 13.5075 22.401 13.4768 22.0244C13.4614 21.8169 13.4534 21.6361 13.4534 21.4824C13.4534 20.9751 13.5614 20.5521 13.7766 20.2139C13.9995 19.8681 14.2803 19.6064 14.6184 19.4297C14.8213 19.3237 15.0283 19.2494 15.2395 19.207C15.6961 19.323 16.1634 19.3968 16.6409 19.4297C16.7506 19.4949 16.8573 19.5717 16.9592 19.6611C17.3357 19.9917 17.5358 20.5027 17.5588 21.1943C17.5588 21.4557 17.5851 21.921 17.6389 22.5898C17.6927 23.2585 17.7816 23.9655 17.9045 24.7109C18.0275 25.4489 18.1971 26.0878 18.4124 26.626C18.6275 27.1559 18.8923 27.444 19.2073 27.4902C19.5455 27.4902 19.7151 26.7948 19.7151 25.4033C19.7151 23.9057 19.5448 21.8435 19.2043 19.2168C19.6161 19.1156 20.016 18.9822 20.4026 18.8135C21.3981 18.3825 22.2226 17.7572 22.844 16.9287C22.8937 16.8632 22.9417 16.7968 22.9875 16.7295C23.113 16.9301 23.267 17.1102 23.4475 17.2676C23.633 17.9443 23.8038 18.7383 23.9583 19.6494C24.1888 21.0099 24.3049 22.4164 24.3049 23.8691C24.3049 26.0909 23.985 27.8865 23.3469 29.2549C22.5936 30.8537 21.4063 31.6532 19.7844 31.6533C19.0235 31.6533 18.2814 31.3998 17.5588 30.8926C16.8439 30.3852 16.1828 29.5697 15.5754 28.4473C15.1911 29.2622 14.7449 29.893 14.2375 30.3389C13.7379 30.777 13.1342 31.0042 12.427 31.0195C11.42 31.0195 10.5741 30.7773 9.88989 30.293C9.20578 29.801 8.65656 29.1549 8.24146 28.3555C7.83405 27.5484 7.53827 26.6488 7.35376 25.6572C7.17695 24.6656 7.08814 23.6622 7.08813 22.6475C7.08813 20.6489 7.34965 18.9115 7.87231 17.4355C8.01834 17.0743 8.2911 16.7896 8.69067 16.582C9.09812 16.3668 9.53313 16.2588 9.99438 16.2588ZM49.6174 15.167C49.7795 15.2016 49.9349 15.2438 50.0842 15.292C50.2333 16.242 50.5468 17.0954 51.1458 17.6943L51.1526 17.7002C51.6188 18.1578 52.2372 18.4047 52.9221 18.5215C52.9232 18.5515 52.925 18.5814 52.925 18.6113C52.925 19.1264 52.7675 19.5796 52.4524 19.9717C52.1449 20.3637 51.6836 20.602 51.0686 20.6865L50.7688 20.71C50.4768 20.7099 50.2536 20.6524 50.0999 20.5371C49.9463 20.4219 49.8046 20.2873 49.6741 20.1338C49.5434 19.98 49.389 19.8256 49.2122 19.6719C48.8894 19.3877 48.5206 19.2452 48.1057 19.2451L47.8977 19.2568C47.2673 19.3568 46.806 19.7878 46.5139 20.5488C46.2219 21.3021 46.0755 22.1553 46.0754 23.1084C46.0754 23.8385 46.1563 24.5535 46.3176 25.2529C46.4791 25.9448 46.7102 26.5141 47.01 26.96C47.3175 27.4058 47.6901 27.6288 48.1282 27.6289H48.1858C48.7239 27.4444 49.1701 27.0023 49.5237 26.3027C49.7312 25.9261 50.0231 25.6414 50.3997 25.4492C50.7839 25.2494 51.1839 25.1495 51.5989 25.1494C51.9448 25.1494 52.2759 25.2231 52.5911 25.3691C52.9062 25.5075 53.1597 25.7226 53.3518 26.0146C53.5517 26.3067 53.6516 26.6793 53.6516 27.1328C53.6516 27.5326 53.5517 28.0019 53.3518 28.54C52.8906 29.5469 52.1565 30.3153 51.1497 30.8457C50.1503 31.3684 49.1509 31.6299 48.1516 31.6299C47.083 31.6299 46.1413 31.3917 45.3264 30.915C44.5194 30.4308 43.8429 29.7855 43.2971 28.9785C42.7513 28.1714 42.3395 27.2638 42.0627 26.2568C41.786 25.2498 41.6477 24.2232 41.6477 23.1777C41.6477 21.8708 41.8627 20.6213 42.2932 19.4297C42.6601 18.4256 43.1826 17.5686 43.8567 16.8555C44.0124 17.046 44.1718 17.2345 44.3362 17.4199L44.3499 17.4355L44.3655 17.4512C44.9243 18.0292 45.6205 18.4481 46.4446 18.4482C47.6102 18.4482 48.4568 17.7025 49.0286 16.7158L49.0442 16.6895L49.0579 16.6611C49.2815 16.2138 49.4649 15.7138 49.6174 15.167ZM36.6155 17.0273C36.8681 17.6194 37.2497 18.1266 37.7971 18.4688C38.3169 18.7936 38.8915 18.9668 39.5032 18.9668C40.2745 18.9667 40.9801 18.7131 41.592 18.2383C41.7153 18.1427 41.8271 18.0392 41.9299 17.9307C41.9783 18.0933 42.0051 18.2581 42.0051 18.4268C42.0051 18.8803 41.8365 19.2881 41.4983 19.6494C41.2523 19.8647 40.9596 20.007 40.6213 20.0762C40.2833 20.1376 39.9336 20.176 39.5725 20.1914C39.2881 20.2068 39.0146 20.233 38.7532 20.2715C38.7916 22.301 38.8189 24.1774 38.8342 25.8994L38.8801 28.9092C38.8801 29.1935 38.8498 29.4743 38.7883 29.751C38.7268 30.0275 38.5843 30.2772 38.3616 30.5C38.1463 30.7152 37.8809 30.8808 37.5657 30.9961C37.2582 31.1114 36.9352 31.1689 36.5969 31.1689C36.1511 31.1689 35.7281 31.0539 35.3284 30.8232C34.9056 30.5465 34.637 30.0811 34.5217 29.4277C34.3372 28.3668 34.2444 27.2979 34.2444 26.2217C34.2444 25.2301 34.2828 24.2386 34.3596 23.2471C34.4211 22.2862 34.4595 21.3291 34.4749 20.376L34.0833 20.3867C33.8757 20.4021 33.6637 20.4102 33.4485 20.4102C33.1642 20.4101 32.8873 20.3829 32.6184 20.3291C32.3573 20.2676 32.1227 20.1452 31.9153 19.9609C31.7078 19.7688 31.5503 19.5416 31.4426 19.2803C31.3427 19.0112 31.2922 18.7377 31.2922 18.4609C31.2923 18.1412 31.3647 17.8388 31.509 17.5537C31.8733 17.9035 32.3155 18.1301 32.8108 18.2314C33.2135 18.3138 33.6188 18.3555 34.0256 18.3555H34.2463C35.1553 18.3225 35.9442 17.9519 36.4963 17.2197L36.5159 17.1934L36.5344 17.166C36.564 17.1209 36.5898 17.0738 36.6155 17.0273ZM28.3342 15.835C28.6841 15.843 29.0209 15.9063 29.344 16.0283C29.6898 16.159 29.9474 16.3741 30.1165 16.6738C30.3625 17.2427 30.5502 18.5306 30.6809 20.5371C30.8116 22.5358 30.8772 24.4154 30.8772 26.1758C30.8772 27.6977 30.8237 28.7779 30.7161 29.416C30.6315 29.7927 30.4428 30.1278 30.1506 30.4199C29.8663 30.7041 29.5047 30.881 29.0667 30.9502C28.8669 30.9732 28.6628 30.9844 28.4553 30.9844C27.6176 30.9843 27.041 30.7461 26.7258 30.2695C26.4722 29.8082 26.2682 28.9199 26.1145 27.6055C25.9608 26.291 25.8457 24.8534 25.7688 23.293C25.6996 21.7247 25.6653 20.3984 25.6653 19.3145C25.6653 18.7466 25.6734 18.297 25.6917 17.9658C26.281 17.9202 26.8265 17.7102 27.3098 17.3525L27.3528 17.3213L27.3918 17.2842C27.6606 17.0369 27.8862 16.7531 28.0579 16.4326C28.1611 16.24 28.2524 16.0403 28.3342 15.835ZM38.0364 17.3926C38.0666 17.4211 38.0977 17.4482 38.1292 17.4746C38.1082 17.4569 38.086 17.4406 38.0657 17.4219L38.0364 17.3926ZM51.8528 16.9863L51.9358 17.0625C51.907 17.0382 51.8792 17.0133 51.8528 16.9873C51.8008 16.9354 51.7507 16.8794 51.7034 16.8193C51.7506 16.8792 51.801 16.9345 51.8528 16.9863ZM37.6458 16.8682H37.6448H37.6458ZM21.6038 16.833V16.834V16.833ZM35.6975 16.6182C35.6534 16.6766 35.6073 16.7317 35.5588 16.7832C35.5144 16.8304 35.4673 16.8737 35.4192 16.915C35.5199 16.8284 35.613 16.7292 35.6975 16.6172V16.6182ZM27.0823 16.1182C27.0523 16.164 27.0193 16.208 26.9856 16.252C27.041 16.18 27.0896 16.1043 27.135 16.0273H27.136L27.0823 16.1182ZM48.2854 15.9531L48.1633 16.2139C48.2094 16.1218 48.2532 16.0262 48.2961 15.9277C48.2925 15.9362 48.2891 15.9447 48.2854 15.9531Z" fill="#6A5CFF"/>
<path d="M54.0202 17.6094C52.9978 17.6094 52.2751 17.4018 51.8523 16.9867C51.4372 16.5715 51.1681 15.8989 51.0451 14.9687C50.9298 14.0308 50.8452 13.0275 50.7914 11.959C50.7376 10.8904 50.7107 9.81412 50.7107 8.73017C50.7107 7.14652 50.753 5.63206 50.8375 4.18679C50.8837 3.44109 51.0835 2.89143 51.4372 2.5378C51.9676 2.01504 52.9439 1.75366 54.3662 1.75366C55.9344 1.75366 57.4335 2.16879 58.8634 2.99905C60.0242 3.72938 60.9045 4.7057 61.5041 5.92803C62.1037 7.14268 62.4035 8.41882 62.4035 9.75646C62.4035 10.8174 62.2075 11.8475 61.8154 12.8469C61.4311 13.8386 60.8468 14.7111 60.0627 15.4645C59.2862 16.1641 58.3406 16.6945 57.2259 17.0558C56.1189 17.4172 55.0503 17.6017 54.0202 17.6094ZM55.1618 13.262C56.1458 13.1851 56.9031 12.7931 57.4335 12.0858C57.9716 11.3709 58.2407 10.5675 58.2407 9.67574C58.2407 9.1453 58.1331 8.63023 57.9178 8.13053C57.7103 7.62315 57.3874 7.18111 56.9492 6.80442C56.5187 6.42773 55.9613 6.15866 55.2771 5.99722C55.2694 6.89667 55.2425 7.79612 55.1964 8.69557C55.1349 9.64115 55.1042 10.5906 55.1042 11.5438C55.1042 12.1127 55.1234 12.6854 55.1618 13.262Z" fill="#6A5CFF"/>
<path d="M39.5024 17.9668C39.0873 17.9668 38.6952 17.8514 38.3262 17.6208C37.9572 17.3902 37.6766 17.0212 37.4844 16.5138C37.2615 15.868 37.0885 15.0378 36.9655 14.023C36.8425 13.0082 36.781 11.932 36.781 10.7942C36.781 9.52576 36.8656 8.28806 37.0347 7.0811C37.2115 5.87415 37.4883 4.87091 37.865 4.0714C38.2417 3.27189 38.7337 2.81832 39.341 2.7107L39.6293 2.68763C40.7901 2.68763 41.9855 3.67549 43.2155 5.65121C43.5384 6.15859 43.8344 6.64675 44.1035 7.1157C44.3187 7.49239 44.5147 7.82296 44.6916 8.1074C44.6531 7.53083 44.5839 6.95041 44.484 6.36615C44.3379 5.47439 44.2649 4.77866 44.2649 4.27897C44.2649 3.83309 44.3187 3.38721 44.4263 2.94132C44.5263 2.60307 44.7992 2.31478 45.2451 2.07647C45.6986 1.83815 46.183 1.71899 46.698 1.71899C47.0517 1.71899 47.3784 1.79587 47.6782 1.94962C47.9857 2.10337 48.2163 2.35322 48.3701 2.69916C48.6391 3.3603 48.8506 4.30587 49.0043 5.53589C49.1657 6.76591 49.2465 8.0728 49.2465 9.45657C49.2465 10.7635 49.1619 12.0242 48.9928 13.2389C48.8236 14.4535 48.5469 15.4452 48.1625 16.214C47.6859 17.0366 47.1132 17.4478 46.4443 17.4478C45.9831 17.4478 45.5295 17.2172 45.0836 16.756C44.2457 15.8104 43.5269 14.7995 42.9272 13.7232C42.3353 12.6469 41.8279 11.5976 41.4051 10.5751C41.5973 12.4509 41.6934 14.0845 41.6934 15.476V16.0525C41.6626 16.6368 41.4243 17.1019 40.9784 17.4478C40.5326 17.7938 40.0406 17.9668 39.5024 17.9668Z" fill="#6A5CFF"/>
<path d="M34.2096 17.3558H34.0251C33.6868 17.3558 33.3486 17.3212 33.0103 17.252C32.6721 17.1828 32.3876 17.029 32.157 16.7907C31.9341 16.537 31.7803 16.2564 31.6958 15.9489C31.6112 15.6414 31.5497 15.3301 31.5112 15.0149L31.4421 14.5421L30.3235 14.4844C29.8084 14.4383 29.2934 14.4153 28.7783 14.4153C28.4785 14.4153 28.1748 14.4306 27.8673 14.4614C27.7136 14.7228 27.5829 14.9957 27.4753 15.2801C27.3907 15.5184 27.2908 15.7452 27.1754 15.9605C27.0601 16.1757 26.9064 16.3717 26.7142 16.5486C26.3298 16.833 25.907 16.9752 25.4457 16.9752C25.046 16.9752 24.6731 16.8753 24.3272 16.6754C23.9812 16.4678 23.7583 16.1719 23.6584 15.7875C23.6045 15.5569 23.5776 15.3224 23.5776 15.0841C23.5776 14.7612 23.6122 14.4383 23.6814 14.1154C23.7506 13.7849 23.8313 13.462 23.9236 13.1468L23.9812 12.9162C24.3426 11.4709 24.7731 9.918 25.2728 8.25748C25.7801 6.58927 26.3529 5.08249 26.9909 3.73716C27.3061 3.04528 27.6867 2.53021 28.1325 2.19195C28.5784 1.8537 29.2088 1.68457 30.0237 1.68457C31.3844 1.68457 32.403 2.33417 33.0795 3.63338C33.6407 4.68658 34.1212 5.96657 34.5209 7.47334C34.9207 8.97242 35.2321 10.4254 35.455 11.8322C35.6856 13.239 35.8278 14.3307 35.8817 15.1071L35.8932 15.2916C35.9086 15.4531 35.9162 15.6107 35.9162 15.7644C35.9162 16.1104 35.8432 16.3948 35.6972 16.6178C35.3435 17.0867 34.8477 17.3327 34.2096 17.3558ZM30.9923 11.4863C30.8616 10.7021 30.6695 9.93722 30.4158 9.19152C30.2389 8.63801 30.0852 8.08066 29.9545 7.51947C29.4702 8.78792 29.0166 10.0718 28.5938 11.371H28.9628C29.6393 11.371 30.3158 11.4094 30.9923 11.4863Z" fill="#6A5CFF"/>
<path d="M17.2126 18.4512C16.0441 18.4512 14.9486 18.1782 13.9261 17.6324C12.9114 17.0789 12.208 16.2487 11.8159 15.1416C11.7544 14.9341 11.7236 14.7304 11.7236 14.5305C11.7236 13.9693 11.9389 13.485 12.3694 13.0775C12.7999 12.6701 13.2996 12.4664 13.8685 12.4664C14.2913 12.4664 14.7141 12.6086 15.1369 12.893C15.3829 13.0929 15.5982 13.3274 15.7827 13.5964C15.9672 13.8578 16.1671 14.0884 16.3823 14.2883C16.5976 14.4805 16.8743 14.5766 17.2126 14.5766C17.4202 14.5689 17.5931 14.4959 17.7315 14.3575C17.8776 14.2114 17.9506 14.0423 17.9506 13.8501C17.9506 13.7656 17.9314 13.681 17.8929 13.5964C17.6931 13.1736 17.3894 12.7815 16.982 12.4202C16.5745 12.0589 16.1248 11.7014 15.6328 11.3478C15.0255 10.9173 14.445 10.4445 13.8915 9.92945C13.338 9.41438 12.9037 8.80321 12.5885 8.09595C12.3194 7.45788 12.1849 6.80059 12.1849 6.12408V6.06642C12.1849 5.25922 12.3386 4.56734 12.6461 3.99077C12.9613 3.40651 13.3803 2.92988 13.9031 2.56087C14.4258 2.18418 15.0101 1.90743 15.6558 1.73061C16.3093 1.54611 16.9704 1.45386 17.6392 1.45386C18.4926 1.45386 19.3036 1.58839 20.0724 1.85746C20.8411 2.11884 21.4677 2.49937 21.952 2.99907C22.4363 3.49876 22.6785 4.09839 22.6785 4.79797C22.6554 5.40529 22.4402 5.91651 22.0327 6.33165C21.633 6.73909 21.1371 6.94281 20.5452 6.94281C19.861 6.94281 19.2575 6.64299 18.7347 6.04336C18.481 5.75892 18.1774 5.52445 17.8238 5.33994C17.7238 5.30151 17.6239 5.28229 17.5239 5.28229C17.3241 5.28229 17.1472 5.34379 16.9935 5.46679C16.7475 5.65898 16.6245 5.91651 16.6245 6.23939C16.6245 6.55459 16.7321 6.8544 16.9474 7.13884C17.1703 7.42329 17.4586 7.70773 17.8122 7.99217C18.1735 8.26892 18.5733 8.55721 19.0115 8.85702C19.4497 9.15684 19.8917 9.47972 20.3376 9.82566C20.7835 10.1716 21.1909 10.5483 21.5599 10.9557C21.9366 11.3632 22.2403 11.8129 22.4709 12.3049C22.7015 12.7892 22.8169 13.3312 22.8169 13.9308C22.8169 14.8534 22.5593 15.6529 22.0442 16.3294C21.5369 17.0059 20.8565 17.5286 20.0032 17.8977C19.1576 18.2667 18.2273 18.4512 17.2126 18.4512Z" fill="#6A5CFF"/>
<path d="M68.6946 8.0231C68.9452 7.8558 69.2788 8.04842 69.2592 8.34906L69.1507 10.0128C69.1429 10.1321 69.1944 10.2477 69.2883 10.3218L70.5973 11.3544C70.8338 11.541 70.7537 11.9178 70.4617 11.9921L68.8459 12.403C68.73 12.4324 68.636 12.5171 68.5945 12.6293L68.017 14.1933C67.9126 14.476 67.5295 14.5162 67.3686 14.2615L66.4785 12.8517C66.4147 12.7506 66.3051 12.6873 66.1856 12.6826L64.5196 12.6166C64.2186 12.6047 64.0619 12.2527 64.2545 12.0211L65.3202 10.7389C65.3966 10.6469 65.423 10.5231 65.3905 10.408L64.9385 8.80319C64.8568 8.5132 65.1431 8.25542 65.4229 8.36698L66.9717 8.98431C67.0828 9.02861 67.2086 9.01538 67.3081 8.94895L68.6946 8.0231Z" fill="#6A5CFF"/>
<path d="M8.7097 8.65597C8.69798 8.47407 8.90016 8.35734 9.05183 8.45844L9.89116 9.01793C9.95139 9.05808 10.0276 9.06601 10.0949 9.03915L11.0333 8.6648C11.2029 8.59716 11.3761 8.75298 11.3265 8.92849L11.0519 9.89977C11.0322 9.96946 11.048 10.0443 11.0943 10.1L11.7391 10.8752C11.8556 11.0153 11.7605 11.2283 11.5782 11.2357L10.5691 11.2765C10.4967 11.2794 10.4303 11.3178 10.3916 11.379L9.85171 12.2325C9.75416 12.3867 9.52212 12.3626 9.45905 12.1916L9.11006 11.2456C9.08501 11.1777 9.02812 11.1265 8.9579 11.1087L7.97943 10.8609C7.80262 10.8162 7.7543 10.5882 7.89767 10.4752L8.69106 9.84967C8.74799 9.80479 8.77922 9.73483 8.77456 9.6626L8.7097 8.65597Z" fill="#6A5CFF"/>
<path d="M69.3272 25.4068C69.3187 25.2752 69.4649 25.1908 69.5746 25.2639L70.1815 25.6685C70.2251 25.6975 70.2802 25.7033 70.3289 25.6839L71.0074 25.4131C71.1301 25.3642 71.2554 25.4769 71.2195 25.6038L71.0209 26.3062C71.0066 26.3566 71.0181 26.4107 71.0515 26.451L71.5178 27.0116C71.6021 27.1129 71.5333 27.2669 71.4015 27.2723L70.6718 27.3018C70.6194 27.3039 70.5714 27.3316 70.5434 27.3759L70.153 27.9931C70.0824 28.1046 69.9146 28.0871 69.869 27.9635L69.6167 27.2794C69.5986 27.2303 69.5574 27.1933 69.5066 27.1804L68.7991 27.0012C68.6712 26.9689 68.6363 26.804 68.7399 26.7223L69.3137 26.27C69.3548 26.2375 69.3774 26.1869 69.3741 26.1347L69.3272 25.4068Z" fill="#6A5CFF"/>
<path d="M35.8346 2.45141C35.893 2.33325 36.0618 2.33325 36.1203 2.45141L36.4436 3.10527C36.4668 3.15219 36.5117 3.18471 36.5636 3.19223L37.2866 3.29708C37.4172 3.31603 37.4694 3.47626 37.3749 3.56823L36.8517 4.07719C36.8141 4.11371 36.797 4.16633 36.8059 4.2179L36.9294 4.93656C36.9517 5.06642 36.8151 5.16546 36.6982 5.10414L36.0516 4.76484C36.0052 4.74049 35.9497 4.74049 35.9033 4.76484L35.2566 5.10414C35.1398 5.16546 35.0032 5.06642 35.0255 4.93656L35.149 4.2179C35.1579 4.16633 35.1407 4.11371 35.1032 4.07719L34.58 3.56823C34.4855 3.47626 34.5376 3.31603 34.6683 3.29708L35.3913 3.19223C35.4432 3.18471 35.488 3.15219 35.5112 3.10527L35.8346 2.45141Z" fill="#6A5CFF"/>
<path d="M24.8498 0.4228C24.9368 0.323795 25.0999 0.367489 25.1257 0.496739L25.2688 1.21201C25.2791 1.26333 25.314 1.30635 25.3622 1.32705L26.0334 1.61546C26.1547 1.66757 26.1636 1.83585 26.0485 1.90022L25.4114 2.25643C25.3657 2.28199 25.3355 2.32838 25.3308 2.38048L25.264 3.10662C25.252 3.23784 25.0944 3.29814 24.9974 3.20868L24.4606 2.71356C24.4221 2.67803 24.3685 2.66368 24.3174 2.67519L23.6049 2.83555C23.4762 2.86453 23.3699 2.73353 23.4251 2.61387L23.7304 1.95166C23.7523 1.90414 23.7493 1.84888 23.7225 1.80389L23.3489 1.17686C23.2814 1.06356 23.3732 0.922282 23.5043 0.937796L24.2299 1.02365C24.2819 1.02981 24.3337 1.01001 24.3682 0.970691L24.8498 0.4228Z" fill="#6A5CFF"/>
</svg>
