<svg width="12" height="14" viewBox="0 0 12 14" fill="none" xmlns="http://www.w3.org/2000/svg">
<path d="M0 14V10.1111C0 9.68333 0.146875 9.31713 0.440625 9.0125C0.734375 8.70787 1.0875 8.55556 1.5 8.55556H10.5C10.9125 8.55556 11.2656 8.70787 11.5594 9.0125C11.8531 9.31713 12 9.68333 12 10.1111V14H0ZM3.75 7.77778C2.7125 7.77778 1.82813 7.39861 1.09688 6.64028C0.365625 5.88194 0 4.96482 0 3.88889C0 2.81296 0.365625 1.89583 1.09688 1.1375C1.82813 0.379167 2.7125 0 3.75 0H8.25C9.2875 0 10.1719 0.379167 10.9031 1.1375C11.6344 1.89583 12 2.81296 12 3.88889C12 4.96482 11.6344 5.88194 10.9031 6.64028C10.1719 7.39861 9.2875 7.77778 8.25 7.77778H3.75ZM3.75 4.66667C3.9625 4.66667 4.14062 4.59213 4.28438 4.44306C4.42813 4.29398 4.5 4.10926 4.5 3.88889C4.5 3.66852 4.42813 3.4838 4.28438 3.33472C4.14062 3.18565 3.9625 3.11111 3.75 3.11111C3.5375 3.11111 3.35938 3.18565 3.21563 3.33472C3.07188 3.4838 3 3.66852 3 3.88889C3 4.10926 3.07188 4.29398 3.21563 4.44306C3.35938 4.59213 3.5375 4.66667 3.75 4.66667ZM8.25 4.66667C8.4625 4.66667 8.64062 4.59213 8.78438 4.44306C8.92813 4.29398 9 4.10926 9 3.88889C9 3.66852 8.92813 3.4838 8.78438 3.33472C8.64062 3.18565 8.4625 3.11111 8.25 3.11111C8.0375 3.11111 7.85938 3.18565 7.71563 3.33472C7.57188 3.4838 7.5 3.66852 7.5 3.88889C7.5 4.10926 7.57188 4.29398 7.71563 4.44306C7.85938 4.59213 8.0375 4.66667 8.25 4.66667Z" fill="white"/>
</svg>
