<svg width="18" height="18" viewBox="0 0 18 18" fill="none" xmlns="http://www.w3.org/2000/svg">
<path d="M9 15C7.325 15 5.90625 14.4188 4.74375 13.2563C3.58125 12.0938 3 10.675 3 9C3 7.325 3.58125 5.90625 4.74375 4.74375C5.90625 3.58125 7.325 3 9 3C9.8625 3 10.6875 3.17812 11.475 3.53438C12.2625 3.89063 12.9375 4.4 13.5 5.0625V3.75C13.5 3.33579 13.8358 3 14.25 3C14.6642 3 15 3.33579 15 3.75V8.25H10.5C10.0858 8.25 9.75 7.91421 9.75 7.5C9.75 7.08579 10.0858 6.75 10.5 6.75H12.9C12.5 6.05 11.9531 5.5 11.2594 5.1C10.5656 4.7 9.8125 4.5 9 4.5C7.75 4.5 6.6875 4.9375 5.8125 5.8125C4.9375 6.6875 4.5 7.75 4.5 9C4.5 10.25 4.9375 11.3125 5.8125 12.1875C6.6875 13.0625 7.75 13.5 9 13.5C9.9625 13.5 10.8313 13.225 11.6063 12.675C12.2276 12.2341 12.7003 11.6807 13.0243 11.0148C13.1703 10.7147 13.4612 10.5 13.795 10.5C14.3091 10.5 14.6856 10.9896 14.477 11.4595C14.0785 12.3569 13.4778 13.1183 12.675 13.7438C11.6 14.5813 10.375 15 9 15Z" fill="#999999"/>
</svg>
