<svg width="20" height="20" viewBox="0 0 20 20" fill="none" xmlns="http://www.w3.org/2000/svg">
<path d="M17.5392 17.5328C17.2805 17.7901 16.8616 17.787 16.6068 17.5258L14.3791 15.2427C13.7217 15.7996 12.9657 16.2306 12.1111 16.5359C11.2564 16.8411 10.3977 16.9937 9.53473 16.9937C7.42887 16.9937 5.64657 16.2685 4.18781 14.8179C2.72927 13.3673 2 11.5951 2 9.50112C2 7.40693 2.72894 5.63315 4.18682 4.17976C5.64471 2.72658 7.42592 2 9.53046 2C11.6352 2 13.418 2.7256 14.8787 4.17681C16.3392 5.62824 17.0695 7.40159 17.0695 9.49686C17.0695 10.4058 16.9076 11.2855 16.584 12.1358C16.2603 12.9861 15.8355 13.7131 15.3096 14.3169L17.5461 16.6093C17.7975 16.8669 17.7944 17.2789 17.5392 17.5328ZM9.53473 15.6855C11.2792 15.6855 12.752 15.088 13.9531 13.893C15.1541 12.6982 15.7547 11.2328 15.7547 9.49686C15.7547 7.76091 15.1541 6.29553 13.9531 5.10072C12.752 3.90569 11.2792 3.30818 9.53473 3.30818C7.79 3.30818 6.31722 3.90569 5.11638 5.10072C3.91532 6.29553 3.31479 7.76091 3.31479 9.49686C3.31479 11.2328 3.91532 12.6982 5.11638 13.893C6.31722 15.088 7.79 15.6855 9.53473 15.6855Z" fill="#999999"/>
</svg>
