<svg width="12" height="12" viewBox="0 0 12 12" fill="none" xmlns="http://www.w3.org/2000/svg">
<path d="M6 12C7.675 12 9.09375 11.4188 10.2562 10.2563C11.4187 9.09375 12 7.675 12 6C12 4.325 11.4187 2.90625 10.2562 1.74375C9.09375 0.58125 7.675 0 6 0C5.1375 0 4.3125 0.178125 3.525 0.534375C2.7375 0.890625 2.0625 1.4 1.5 2.0625V0.75C1.5 0.335786 1.16421 0 0.75 0C0.335787 0 0 0.335786 0 0.75V5.25H4.5C4.91421 5.25 5.25 4.91421 5.25 4.5C5.25 4.08579 4.91421 3.75 4.5 3.75H2.1C2.5 3.05 3.04687 2.5 3.74062 2.1C4.43437 1.7 5.1875 1.5 6 1.5C7.25 1.5 8.3125 1.9375 9.1875 2.8125C10.0625 3.6875 10.5 4.75 10.5 6C10.5 7.25 10.0625 8.3125 9.1875 9.1875C8.3125 10.0625 7.25 10.5 6 10.5C5.0375 10.5 4.16875 10.225 3.39375 9.675C2.77243 9.23407 2.29975 8.68066 1.97569 8.01477C1.82965 7.71469 1.53877 7.5 1.20505 7.5C0.690919 7.5 0.314398 7.98964 0.523049 8.45952C0.921519 9.35688 1.52217 10.1183 2.325 10.7438C3.4 11.5813 4.625 12 6 12Z" fill="#999999"/>
</svg>
