<svg width="12" height="12" viewBox="0 0 12 12" fill="none" xmlns="http://www.w3.org/2000/svg">
<path d="M6 12C4.325 12 2.90625 11.4188 1.74375 10.2563C0.58125 9.09375 0 7.675 0 6C0 4.325 0.58125 2.90625 1.74375 1.74375C2.90625 0.58125 4.325 0 6 0C6.8625 0 7.6875 0.178125 8.475 0.534375C9.2625 0.890625 9.9375 1.4 10.5 2.0625V0.75C10.5 0.335786 10.8358 0 11.25 0C11.6642 0 12 0.335786 12 0.75V5.25H7.5C7.08579 5.25 6.75 4.91421 6.75 4.5C6.75 4.08579 7.08579 3.75 7.5 3.75H9.9C9.5 3.05 8.95313 2.5 8.25938 2.1C7.56563 1.7 6.8125 1.5 6 1.5C4.75 1.5 3.6875 1.9375 2.8125 2.8125C1.9375 3.6875 1.5 4.75 1.5 6C1.5 7.25 1.9375 8.3125 2.8125 9.1875C3.6875 10.0625 4.75 10.5 6 10.5C6.9625 10.5 7.83125 10.225 8.60625 9.675C9.22757 9.23407 9.70025 8.68066 10.0243 8.01477C10.1703 7.71469 10.4612 7.5 10.795 7.5C11.3091 7.5 11.6856 7.98964 11.477 8.45952C11.0785 9.35688 10.4778 10.1183 9.675 10.7438C8.6 11.5813 7.375 12 6 12Z" fill="white"/>
</svg>
