<svg width="14" height="14" viewBox="0 0 14 14" fill="none" xmlns="http://www.w3.org/2000/svg">
<path d="M4.9 8.575C4.655 8.575 4.44792 8.49042 4.27875 8.32125C4.10958 8.15208 4.025 7.945 4.025 7.7C4.025 7.455 4.10958 7.24792 4.27875 7.07875C4.44792 6.90958 4.655 6.825 4.9 6.825C5.145 6.825 5.35208 6.90958 5.52125 7.07875C5.69042 7.24792 5.775 7.455 5.775 7.7C5.775 7.945 5.69042 8.15208 5.52125 8.32125C5.35208 8.49042 5.145 8.575 4.9 8.575ZM9.1 8.575C8.855 8.575 8.64792 8.49042 8.47875 8.32125C8.30958 8.15208 8.225 7.945 8.225 7.7C8.225 7.455 8.30958 7.24792 8.47875 7.07875C8.64792 6.90958 8.855 6.825 9.1 6.825C9.345 6.825 9.55208 6.90958 9.72125 7.07875C9.89042 7.24792 9.975 7.455 9.975 7.7C9.975 7.945 9.89042 8.15208 9.72125 8.32125C9.55208 8.49042 9.345 8.575 9.1 8.575ZM7 12.6C8.56333 12.6 9.8875 12.0575 10.9725 10.9725C12.0575 9.8875 12.6 8.56333 12.6 7C12.6 6.72 12.5825 6.44875 12.5475 6.18625C12.5125 5.92375 12.4483 5.67 12.355 5.425C12.11 5.48333 11.865 5.52708 11.62 5.55625C11.375 5.58542 11.1183 5.6 10.85 5.6C9.78833 5.6 8.785 5.3725 7.84 4.9175C6.895 4.4625 6.09 3.82667 5.425 3.01C5.05167 3.92 4.51792 4.71042 3.82375 5.38125C3.12958 6.05208 2.32167 6.55667 1.4 6.895V7C1.4 8.56333 1.9425 9.8875 3.0275 10.9725C4.1125 12.0575 5.43667 12.6 7 12.6ZM7 14C6.03167 14 5.12167 13.8162 4.27 13.4488C3.41833 13.0813 2.6775 12.5825 2.0475 11.9525C1.4175 11.3225 0.91875 10.5817 0.55125 9.73C0.18375 8.87833 0 7.96833 0 7C0 6.03167 0.18375 5.12167 0.55125 4.27C0.91875 3.41833 1.4175 2.6775 2.0475 2.0475C2.6775 1.4175 3.41833 0.91875 4.27 0.55125C5.12167 0.18375 6.03167 0 7 0C7.96833 0 8.87833 0.18375 9.73 0.55125C10.5817 0.91875 11.3225 1.4175 11.9525 2.0475C12.5825 2.6775 13.0813 3.41833 13.4488 4.27C13.8162 5.12167 14 6.03167 14 7C14 7.96833 13.8162 8.87833 13.4488 9.73C13.0813 10.5817 12.5825 11.3225 11.9525 11.9525C11.3225 12.5825 10.5817 13.0813 9.73 13.4488C8.87833 13.8162 7.96833 14 7 14Z" fill="white"/>
</svg>
